# xmcd
# Copyright (c) 1998 CDDB Inc.
#
# Track frame offsets:
#	150
#	19115
#	35137
#	54832
#	73589
#	94286
#	113497
#	133052
#	151989
#	174630
#	196587
#	215983
#
# Disc length: 3127 seconds
#
# Revision: 2
# Processed by: cddbd v1.4b42PL1 Copyright (c) Steve Scherf et al.
# Submitted via: audiograbber 1.70
#
DISCID=a60c350c
DTITLE=Brook Benton - Endlessly
DYEAR=1900
DGENRE=
TTITLE0=It's Just A Matter Of Time
TTITLE1=The Boll Weevil Song
TTITLE2=Baby (You Got What It Takes)
TTITLE3=A Rockin' Good Way
TTITLE4=Life To Me
TTITLE5=So Many Ways
TTITLE6=Hotel Happiness
TTITLE7=Kiddio
TTITLE8=Endlessly
TTITLE9=Revenge
TTITLE10=The Same One
TTITLE11=Think Twice
EXTD=OverDrive
EXTT0=
EXTT1=
EXTT2=
EXTT3=
EXTT4=
EXTT5=
EXTT6=
EXTT7=
EXTT8=
EXTT9=
EXTT10=
EXTT11=
PLAYORDER=
